<?xml version="1.0" encoding="utf-8"?>
<!-- Generator: Adobe Illustrator 19.1.0, SVG Export Plug-In . SVG Version: 6.00 Build 0)  -->
<svg version="1.1" id="Layer_1" xmlns="http://www.w3.org/2000/svg" xmlns:xlink="http://www.w3.org/1999/xlink" x="0px" y="0px"
	 viewBox="0 0 95 80" style="enable-background:new 0 0 95 80;" xml:space="preserve">
<style type="text/css">
	.st0{fill:#010101;}
	.st1{fill:#E73225;}
</style>
<path class="st0" d="M69.3,65.8H24.9v6h44.4V65.8z M88.5,8.2H5.7v6h82.8V8.2z M71.1,75.4h-48h-9.6c-1,0-1.8-0.8-1.8-1.8V54.4V35.2
	l0,0V17.8H3.9c-1,0-1.8-0.8-1.8-1.8V6.4c0-1,0.8-1.8,1.8-1.8h86.4c1,0,1.8,0.8,1.8,1.8V16c0,1-0.8,1.8-1.8,1.8h-7.8v7.8v9.6v0.1v9.6
	v9.5v9.7v9.6c0,1-0.8,1.8-1.8,1.8L71.1,75.4L71.1,75.4L71.1,75.4z M42.9,62.2h8.7 M21.3,65.8h-6v6h6V65.8z M21.3,56.2h-6v6h6V56.2z
	 M21.3,46.6h-6v6h6V46.6z M21.3,37h-6v6h6V37z M21.3,27.4h-6v6h6V27.4z M29.7,23.8v-6H15.3v6h9.5l0,0H29.7z M39.8,23.8v-6h-6.5v6
	H39.8z M49.9,23.8v-6h-6.5v6H49.9z M60,23.8v-6h-6.5v6H60z M71.1,23.8h7.8v-6H63.5v6H71.1z M72.9,33.5h6v-6.1h-6V33.5z M72.9,43h6
	v-6h-6V43z M72.9,52.6h6v-5.9h-6V52.6z M78.9,65.8h-6v6h6V65.8z M72.9,62.2h6v-6.1h-6V62.2z M58.4,62.1h11.2v-7.9v-9.5v-9.6v-7.9
	H25.2V35v19.2v8h-0.3h12.9"/>
<path class="st1" d="M37.8,62.2c-2-2.2-3.5-4.5-4.2-7c-1.1-3.8-0.4-7.8,2.5-12.6c0.5-0.8,1.6-1.1,2.5-0.6c0.2,0.2,0.4,0.4,0.6,0.6
	l0,0l2.6,4.1c0.3-0.6,0.6-1.5,0.9-2.6C43,42.8,43,41.4,43,40c0-1.9-0.2-3.6-0.4-4.4c-0.2-1,0.4-1.9,1.4-2.1c0.4-0.1,0.8,0,1.2,0.1
	c3.8,1.6,5.9,3.6,6.9,6.1c1,2.4,0.8,5,0.4,8.2c0.2,0,0.4-0.1,0.6-0.2c1.3-0.5,2.7-1.8,2.8-3.2c0.1-1,1-1.7,2-1.6
	c0.4,0,0.8,0.3,1.1,0.6c1.5,1.5,2.5,3.2,3.1,4.8c1,2.6,0.9,5.2,0.2,7.6c-0.7,2.3-2.1,4.4-3.9,6.2"/>
</svg>
